<?xml version="1.0" standalone="no"?>
<!DOCTYPE svg PUBLIC "-//W3C//DTD SVG 20010904//EN"
 "http://www.w3.org/TR/2001/REC-SVG-20010904/DTD/svg10.dtd">
<svg version="1.0" xmlns="http://www.w3.org/2000/svg"
 width="512.000000pt" height="512.000000pt" viewBox="0 0 512.000000 512.000000"
 preserveAspectRatio="xMidYMid meet">

<g transform="translate(0.000000,512.000000) scale(0.100000,-0.100000)"
fill="#000000" stroke="none">
<path d="M1248 4805 c-92 -34 -178 -119 -215 -215 -16 -41 -18 -108 -21 -752
l-3 -707 -382 -3 -382 -3 -50 -27 c-62 -32 -138 -112 -168 -175 l-22 -48 0
-885 0 -885 22 -48 c30 -63 106 -143 165 -173 65 -33 152 -44 360 -44 l176 0
4 -182 c3 -165 5 -187 25 -224 25 -48 82 -101 129 -120 43 -18 145 -18 188 0
18 8 186 129 373 270 l340 256 464 0 c255 0 495 5 532 10 88 13 151 46 210
109 88 93 91 108 95 409 l3 262 122 0 121 0 333 -251 c183 -138 349 -259 370
-270 45 -23 148 -26 197 -5 47 19 104 72 129 120 20 37 22 59 25 223 l4 183
176 0 c208 0 295 11 360 44 59 30 135 110 165 173 l22 48 0 885 0 885 -22 48
c-30 63 -106 143 -168 175 l-50 27 -382 3 -383 3 0 262 c-1 296 -8 376 -41
444 -33 69 -116 147 -184 172 -56 21 -61 21 -1328 20 -1052 0 -1278 -3 -1309
-14z m2540 -297 c9 -9 12 -89 12 -300 l0 -288 -762 -2 -763 -3 -50 -27 c-62
-32 -139 -112 -168 -175 -20 -45 -22 -66 -25 -315 l-3 -268 -355 0 -354 0 0
683 c0 518 3 686 12 695 17 17 2439 17 2456 0z m1020 -900 c9 -9 12 -207 12
-829 0 -747 -1 -818 -17 -830 -12 -11 -82 -15 -317 -19 -409 -7 -388 8 -396
-291 l-5 -198 -300 226 c-165 124 -311 232 -325 242 -21 14 -84 17 -561 21
-434 4 -539 8 -552 19 -16 12 -17 83 -17 830 0 622 3 820 12 829 17 17 2449
17 2466 0z m-2776 -1245 c3 -459 3 -469 25 -516 30 -63 106 -143 165 -173 66
-33 153 -44 376 -44 l192 0 -2 -232 -3 -232 -25 -13 c-19 -10 -146 -13 -545
-13 -489 0 -522 -1 -550 -19 -16 -10 -165 -120 -330 -245 l-300 -227 -5 198
c-8 301 13 286 -396 293 -235 4 -305 8 -317 19 -16 12 -17 83 -17 830 0 622 3
820 12 829 9 9 215 12 865 12 l852 0 3 -467z"/>
</g>
</svg>
