<?xml version="1.0" standalone="no"?>
<!DOCTYPE svg PUBLIC "-//W3C//DTD SVG 20010904//EN"
 "http://www.w3.org/TR/2001/REC-SVG-20010904/DTD/svg10.dtd">
<svg version="1.0" xmlns="http://www.w3.org/2000/svg"
 width="512.000000pt" height="512.000000pt" viewBox="0 0 512.000000 512.000000"
 preserveAspectRatio="xMidYMid meet">

<g transform="translate(0.000000,512.000000) scale(0.100000,-0.100000)"
fill="#000000" stroke="none">
<path d="M2392 5110 c-639 -81 -1127 -548 -1250 -1195 -15 -77 -17 -158 -17
-565 0 -478 4 -551 41 -745 74 -388 254 -778 484 -1044 51 -58 69 -86 60 -91
-7 -4 -157 -58 -334 -120 -176 -62 -348 -124 -380 -137 -164 -68 -274 -188
-329 -358 -21 -67 -22 -85 -22 -443 l0 -374 24 -19 c32 -26 67 -24 96 6 l25
24 0 334 c0 315 9 447 31 447 9 0 377 -314 402 -343 49 -58 57 -94 57 -260 0
-119 4 -165 15 -186 23 -46 66 -54 109 -20 l26 20 0 173 c0 288 -12 309 -314
567 -116 100 -212 185 -214 189 -4 10 62 62 107 85 28 14 356 135 367 135 1 0
18 -33 38 -72 135 -280 388 -513 680 -627 161 -63 284 -85 461 -85 266 0 505
69 709 207 38 26 73 47 77 47 11 0 80 -136 118 -232 36 -92 58 -189 66 -301 7
-77 10 -90 33 -107 41 -33 84 -22 111 27 15 30 -1 199 -30 310 -41 157 -75
229 -247 523 -211 360 -257 491 -271 759 -7 144 -9 155 -30 173 -30 24 -76 23
-101 -2 -18 -18 -20 -33 -20 -142 0 -185 30 -324 115 -540 l19 -47 -25 -20
c-148 -126 -383 -203 -569 -186 -220 20 -361 86 -515 240 -99 99 -179 216
-159 235 5 4 26 13 47 20 52 16 150 84 181 125 15 19 39 58 54 87 26 51 27 60
30 236 2 100 5 182 7 182 1 0 22 -7 46 -16 133 -47 309 -67 465 -53 247 23
479 129 661 302 165 157 282 367 326 587 l13 65 64 6 c36 4 77 11 93 17 l27
12 0 -1440 0 -1439 26 -20 c43 -34 86 -26 109 20 12 22 15 79 15 283 l0 255
146 126 c80 69 149 125 153 125 22 0 31 -131 31 -447 l0 -334 25 -24 c29 -30
64 -32 96 -6 l24 19 0 374 c0 358 -1 376 -22 443 -65 202 -185 312 -435 398
-16 6 -17 91 -21 1299 -3 1148 -5 1302 -20 1373 -70 342 -229 625 -472 837
-193 168 -412 277 -665 328 -120 24 -335 34 -448 20z m413 -165 c459 -95 823
-412 971 -846 50 -148 65 -247 71 -481 6 -220 6 -221 -40 -196 -12 6 -100 14
-207 18 -204 9 -333 31 -480 82 -500 176 -931 578 -1203 1122 -47 94 -56 120
-46 127 112 72 334 157 464 178 39 6 81 13 95 15 53 9 299 -3 375 -19z m-850
-665 c413 -616 1034 -989 1649 -990 163 0 205 -16 232 -86 15 -39 15 -48 3
-81 -9 -21 -29 -48 -48 -60 -42 -29 -109 -31 -118 -5 -12 34 -36 52 -70 52
-36 0 -73 -29 -73 -57 0 -54 -23 -208 -40 -271 -80 -292 -307 -539 -593 -646
-208 -78 -466 -78 -674 0 -286 107 -512 352 -592 645 -11 39 -26 119 -32 178
-13 122 -18 135 -58 149 -36 13 -71 -3 -89 -41 -11 -23 -19 -27 -57 -27 -81 0
-140 80 -115 155 19 58 63 84 163 94 100 10 159 35 216 92 66 66 84 116 93
255 9 148 32 210 108 286 37 37 50 58 50 80 0 32 -38 78 -65 78 -28 0 -70 -27
-111 -72 -89 -97 -122 -184 -131 -346 -9 -170 -41 -206 -195 -228 -51 -7 -104
-16 -117 -20 l-24 -7 6 209 c3 118 13 246 21 293 47 255 172 495 352 675 l87
87 69 -133 c38 -73 107 -189 153 -258z m-570 -1389 l69 -6 13 -65 c28 -140 84
-272 169 -402 58 -89 217 -249 302 -303 l62 -40 0 -191 c0 -152 -3 -200 -16
-230 -17 -41 -80 -114 -99 -114 -16 0 -104 93 -169 179 -239 313 -394 715
-432 1120 -7 70 -6 74 12 66 10 -4 50 -11 89 -14z m321 -1643 c141 -280 422
-476 740 -519 221 -29 471 34 660 166 36 25 68 45 72 45 7 0 74 -115 80 -136
4 -17 -120 -97 -230 -148 -543 -256 -1202 -23 -1477 522 -23 45 -28 64 -19 67
7 2 42 15 78 29 36 14 66 25 67 25 2 1 15 -23 29 -51z m2410 -196 c21 -11 55
-34 74 -51 l35 -31 -22 -17 c-12 -10 -62 -53 -112 -96 l-91 -78 0 160 0 160
38 -13 c22 -8 57 -23 78 -34z"/>
<path d="M2021 3635 c-74 -24 -143 -53 -154 -64 -42 -41 -11 -121 47 -121 37
0 290 89 304 107 18 24 15 77 -5 95 -34 30 -58 27 -192 -17z"/>
<path d="M2050 3347 c-38 -19 -52 -54 -46 -122 5 -68 27 -95 77 -95 51 0 69
30 69 113 0 58 -4 77 -17 89 -27 24 -55 29 -83 15z"/>
<path d="M3020 3353 c-41 -15 -50 -35 -50 -110 0 -60 4 -77 20 -93 25 -25 71
-26 101 -1 21 17 24 28 24 90 0 57 -4 74 -20 90 -23 22 -53 32 -75 24z"/>
<path d="M2267 2772 c-10 -10 -17 -35 -17 -55 0 -31 6 -41 47 -72 133 -101
393 -101 526 0 41 32 47 40 47 74 0 76 -56 91 -148 39 -54 -31 -62 -33 -162
-33 -100 0 -108 2 -162 33 -65 36 -107 41 -131 14z"/>
</g>
</svg>
