<?xml version="1.0" standalone="no"?>
<!DOCTYPE svg PUBLIC "-//W3C//DTD SVG 20010904//EN"
 "http://www.w3.org/TR/2001/REC-SVG-20010904/DTD/svg10.dtd">
<svg version="1.0" xmlns="http://www.w3.org/2000/svg"
 width="100%" height="100%" viewBox="0 0 512.000000 512.000000"
 preserveAspectRatio="xMidYMid meet">

<g transform="translate(0.000000,512.000000) scale(0.100000,-0.100000)"
fill="#000000" stroke="#000000" stroke-width="50">
<path d="M2463 5105 c-188 -42 -354 -200 -409 -390 -27 -94 -23 -233 8 -321
82 -231 305 -394 542 -394 88 0 117 6 244 52 l82 30 0 104 0 104 -125 0 c-120
0 -127 1 -150 25 -32 31 -32 69 0 100 24 25 27 25 198 25 140 0 189 -4 251
-20 105 -27 188 -73 261 -146 221 -221 221 -571 1 -789 -132 -131 -229 -165
-472 -165 l-162 0 -46 93 c-85 172 -224 309 -401 397 -141 71 -230 92 -385 93
-181 1 -340 -43 -530 -145 -41 -22 -366 -234 -723 -470 l-647 -431 0 -73 0
-74 265 0 265 0 0 -110 0 -110 115 0 c63 0 115 -4 115 -8 0 -4 -34 -57 -75
-117 l-75 -109 0 -73 0 -73 658 0 657 -1 229 -257 229 -257 -624 -5 c-621 -5
-624 -5 -681 -28 -145 -58 -237 -187 -239 -332 -1 -48 69 -618 76 -628 3 -4
138 18 143 23 3 2 -3 57 -12 123 -9 65 -16 121 -16 124 0 4 25 -2 55 -13 39
-14 81 -19 149 -19 66 0 95 -4 98 -12 3 -7 29 -196 59 -420 l54 -408 73 0 c62
0 72 2 72 18 0 9 -23 188 -50 396 -28 209 -50 390 -50 404 0 22 2 23 43 17 79
-13 143 -59 178 -127 17 -34 19 -61 19 -328 l0 -290 68 0 c123 -1 211 -18 286
-55 68 -33 76 -35 176 -35 l105 1 -69 65 c-105 98 -208 144 -378 169 l-38 6 0
218 c0 248 -7 285 -69 372 -45 63 -95 101 -172 131 -47 19 -82 22 -279 27
-221 6 -226 6 -271 33 -62 36 -101 108 -101 186 -1 94 43 166 129 208 36 18
78 19 820 24 l781 5 -364 407 -364 408 -595 2 -595 3 78 118 77 117 80 26
c117 38 190 37 285 -5 96 -42 198 -52 285 -27 47 14 196 84 213 101 6 5 -69
125 -78 125 -5 0 -33 -14 -62 -31 -119 -71 -172 -74 -319 -22 -140 50 -231 51
-363 4 -80 -28 -102 -31 -203 -31 l-113 0 0 110 0 110 -196 2 -195 3 503 338
503 337 160 0 c181 0 212 -9 252 -69 22 -32 23 -44 23 -206 l0 -173 65 -4 c69
-4 101 -21 139 -72 20 -26 21 -43 24 -317 l3 -289 75 0 75 0 -3 300 -3 300 75
0 c90 0 146 -22 182 -71 73 -98 62 -183 -37 -296 l-46 -53 37 -32 c77 -68 72
-68 125 -9 26 30 61 79 76 110 15 31 29 58 30 59 1 2 28 -14 60 -36 131 -89
313 -159 472 -182 119 -18 364 -8 461 19 41 11 86 23 100 27 50 13 -126 -107
-250 -170 -196 -100 -410 -161 -651 -187 -57 -6 -105 -12 -106 -13 -2 -1 144
-167 323 -369 l325 -367 314 0 315 0 0 75 0 75 -282 1 -283 0 -200 227 c-110
124 -201 231 -203 237 -2 7 24 16 64 24 161 29 421 136 581 238 286 181 523
449 667 755 67 141 109 267 143 428 23 110 27 149 27 320 1 211 -7 275 -55
421 -52 162 -144 325 -245 438 l-47 52 -52 -51 -53 -52 67 -83 c116 -144 195
-321 228 -510 12 -69 14 -127 9 -250 -9 -256 -56 -444 -167 -673 -66 -136
-106 -185 -208 -261 -135 -100 -286 -166 -447 -197 -121 -22 -346 -15 -457 15
-198 53 -420 191 -473 294 -36 70 -95 129 -161 163 -55 28 -65 29 -208 32
-109 3 -154 7 -165 17 -9 8 -36 23 -62 35 l-46 20 -4 128 c-4 140 -11 162 -75
233 -43 47 -109 83 -173 94 l-45 8 73 24 c198 63 371 52 549 -33 182 -87 333
-261 394 -454 l17 -55 248 0 c235 0 253 1 319 24 106 35 190 86 271 163 148
141 224 313 224 511 0 324 -213 605 -525 693 -79 22 -445 32 -511 14 -188 -53
-213 -318 -39 -414 30 -17 30 -17 -38 -13 -96 7 -197 57 -268 135 -123 134
-149 304 -69 462 37 74 131 161 207 192 56 22 68 23 423 26 228 2 396 -1 448
-8 170 -22 350 -91 486 -184 38 -26 72 -44 76 -39 49 58 81 104 76 112 -11 17
-139 98 -221 140 -89 45 -193 81 -305 107 -103 24 -860 31 -957 9z"/>
<path d="M3832 3988 l3 -73 73 -3 72 -3 0 76 0 75 -75 0 -76 0 3 -72z"/>
<path d="M3830 3685 l0 -75 75 0 75 0 0 75 0 75 -75 0 -75 0 0 -75z"/>
<path d="M1002 3126 c-57 -19 -106 -37 -109 -40 -6 -6 36 -136 44 -136 3 0 48
14 100 30 123 39 171 39 281 -4 48 -19 110 -36 137 -38 l50 -3 3 72 3 71 -42
7 c-23 4 -74 21 -113 38 -58 25 -88 31 -161 34 -81 3 -100 0 -193 -31z"/>
<path d="M4060 1515 l0 -75 75 0 75 0 0 75 0 75 -75 0 -75 0 0 -75z"/>
<path d="M4360 1515 l0 -75 198 0 c108 0 215 -5 236 -10 97 -22 176 -122 176
-221 0 -64 -42 -142 -98 -183 l-44 -31 -576 -6 c-516 -5 -583 -7 -632 -23
-152 -49 -263 -144 -330 -279 -52 -108 -60 -164 -60 -449 l0 -238 74 0 74 0 4
268 c4 250 5 271 27 325 29 74 112 164 183 200 82 41 154 47 551 47 l367 0 0
-420 0 -420 75 0 75 0 0 419 0 419 93 4 c80 3 102 7 155 34 l62 31 0 -454 0
-453 75 0 76 0 -3 652 -3 653 -27 57 c-54 116 -162 198 -286 219 -31 5 -144 9
-249 9 l-193 0 0 -75z"/>
<path d="M1137 1283 c-4 -3 -7 -37 -7 -75 l0 -68 75 0 75 0 0 75 0 75 -68 0
c-38 0 -72 -3 -75 -7z"/>
<path d="M4660 1215 l0 -75 75 0 76 0 -3 73 -3 72 -72 3 -73 3 0 -76z"/>
<path d="M1002 460 c-29 -4 -56 -11 -60 -14 -3 -4 7 -104 24 -224 l29 -217 78
-3 77 -3 -6 40 c-3 22 -18 126 -33 233 -30 214 -22 201 -109 188z"/>
</g>
</svg>
